# xmcd
#
# Track frame offsets:
#	150
#	17886
#	38895
#	54324
#	81055
#	96916
#	116425
#	130635
#	155471
#	190077
#
# Disc length: 2833 seconds
#
# Revision: 0
# Processed by: cddbd v1.5.1PL0 Copyright (c) Steve Scherf et al.
# Submitted via: dBpowerAMP V4.0
#
DISCID=740b0f0a
DTITLE=Craig Dreyer - What Are Fiends For?
DYEAR=1998
DGENRE=Blues Rock
TTITLE0=80 MPH
TTITLE1=Brooklyn Paradise
TTITLE2=Get Your Own Bag
TTITLE3=I Thought It Wuz Hip
TTITLE4=All I Need Is You
TTITLE5=I'm In Love With Two Women
TTITLE6=Why Do You?
TTITLE7=Blackjack
TTITLE8=Vagabond Abuser
TTITLE9=Hold On
EXTD=
EXTT0=
EXTT1=
EXTT2=
EXTT3=
EXTT4=
EXTT5=
EXTT6=
EXTT7=
EXTT8=
EXTT9=
PLAYORDER=
